PathFileType	4	(X/Y/Z)	RBDS002\RBDS002runT35.trc
DataRate	CameraRate	NumFrames	NumMarkers	Units	OrigDataRate	OrigDataStartFrame	OrigNumFrames
150.000000	150.000000	6	33	mm	150.000000	3937	4500
Frame#	Time	L.ASIS			L.Heel.Bottom			L.Heel.Lateral			L.Heel.Top			L.Iliac.Crest			L.MT1			L.MT5			L.PSIS			L.Shank.Bottom.Lateral			L.Shank.Bottom.Medial			L.Shank.Top.Lateral			L.Shank.Top.Medial			L.Thigh.Bottom.Lateral			L.Thigh.Bottom.Medial			L.Thigh.Top.Lateral			L.Thigh.Top.Medial			R.ASIS			R.ASY			R.Heel.Bottom			R.Heel.Lateral			R.Heel.Top			R.Iliac.Crest			R.MT1			R.MT5			R.PSIS			R.Shank.Bottom.Lateral			R.Shank.Bottom.Medial			R.Shank.Top.Lateral			R.Shank.Top.Medial			R.Thigh.Bottom.Lateral			R.Thigh.Bottom.Medial			R.Thigh.Top.Lateral			R.Thigh.Top.Medial			
		X1	Y1	Z1	X2	Y2	Z2	X3	Y3	Z3	X4	Y4	Z4	X5	Y5	Z5	X6	Y6	Z6	X7	Y7	Z7	X8	Y8	Z8	X9	Y9	Z9	X10	Y10	Z10	X11	Y11	Z11	X12	Y12	Z12	X13	Y13	Z13	X14	Y14	Z14	X15	Y15	Z15	X16	Y16	Z16	X17	Y17	Z17	X18	Y18	Z18	X19	Y19	Z19	X20	Y20	Z20	X21	Y21	Z21	X22	Y22	Z22	X23	Y23	Z23	X24	Y24	Z24	X25	Y25	Z25	X26	Y26	Z26	X27	Y27	Z27	X28	Y28	Z28	X29	Y29	Z29	X30	Y30	Z30	X31	Y31	Z31	X32	Y32	Z32	X33	Y33	Z33	

3938	26.24666666666667	2209.475161418504	989.9429842720853	939.1944836645284	2109.736359035024	42.20817079316237	1039.145525429641	2142.534709038468	49.73688083257173	993.2639105829342	2125.21598686392	91.19970533853429	1036.402276980056	2114.708899369842	1055.061899219862	880.6592033200091	2340.211160211311	52.57614903666863	1084.522013878797	2309.739450894443	37.93869438281217	968.1868670681083	2021.17203045159	1009.403334715489	1004.177258948817	2215.727701630701	154.6728981629507	973.963392033624	2173.095229155041	170.1239713277543	998.305768485091	2229.311421088956	228.9741341580797	944.6655948293296	2187.949387755011	248.9869465267539	972.1965375825351	2274.439377861889	570.4015017864331	897.4229480981498	2224.4139344766	547.4164003626965	945.3460337671588	2209.774660886527	658.1508823016238	875.662266244032	2163.027093989926	636.6486171313234	921.0751818593905	2207.544009640678	951.4628469086618	1149.380072313622	1681.163310545663	369.2931008483761	1103.844797270369	1676.916965401066	557.6948470950608	1043.113208095472	1679.910099627553	543.8936645358618	1088.437466231755	1720.846872749407	533.9208061571187	1051.887733619813	2141.297869480336	1034.046501672018	1201.772990502335	1625.79224019832	328.2965868414942	1067.888970882542	1620.320906808045	390.2984180825312	1162.600057060695	2025.365055955748	996.4107498313405	1092.042379382091	1786.898821308558	485.53087022802	1134.314978897934	1794.71881567437	518.0212384776542	1091.590479695963	1865.973036617333	493.0864670620127	1152.373497459054	1872.847486257969	522.8840359796833	1108.27110212156	2103.157510871441	524.2945450215325	1186.109078855934	2064.743682820737	528.2610620326252	1122.862471045815	2084.328121567004	632.5651969480947	1201.121955981429	2045.156220756205	634.6938546169317	1143.153451195787	
3939	26.25333333333333	2206.173713413644	985.9415077232816	938.5679068804227	2086.357470918033	43.22195597040853	1039.632219150684	2119.361770650576	51.19929831493851	993.8954103401323	2102.03085916107	92.24205287473171	1037.485439615268	2113.095522040498	1049.438353318073	881.2795858850216	2316.716267116647	52.92833756676365	1085.250015542465	2286.254006332959	38.85129140735463	968.9256109350953	2018.210265402904	1006.118619867613	1006.146670873567	2196.522427642981	155.2129387728741	975.5103887294231	2154.184133096013	172.473261091956	999.2792033999723	2213.424809315845	228.8827852864716	946.0917936390979	2172.556495017796	250.5874354833512	973.165859438176	2268.885909443651	566.1892222130252	899.0783318300596	2219.483616315827	544.3634794693011	948.1200229773879	2204.584369017564	654.1924206962782	877.1087209083647	2158.38796025524	633.6472644096523	923.4976551450737	2206.331236893136	946.7637572829002	1148.29823960361	1697.792576474437	368.3209005278495	1105.184753025023	1692.943351387815	556.7976735278695	1044.513938539678	1696.021284312461	542.9547101101465	1089.8453307273	1736.923737384306	533.0620218474528	1053.289681588884	2140.744048938896	1028.805032350498	1202.315282848921	1642.457668871869	327.0802513583021	1069.439673519163	1636.94422166031	389.1350465724932	1164.193988923746	2023.268362801874	992.8340914011534	1093.671521359626	1803.313327061308	484.4453391944744	1135.854412729924	1811.55684193748	516.6701901735717	1093.042524079097	1882.433360993024	491.3681474805531	1154.108581773423	1889.730875216925	520.8568556161711	1109.852908388101	2115.255904870889	519.6822797147673	1188.555497942056	2076.954526644201	522.1670206456427	1125.242484783998	2092.698923297158	627.2022196180751	1203.01979364983	2053.006687968912	627.5915939490993	1145.29476634159	
3940	26.26	2202.77068842219	982.4409077442535	937.8986976107786	2063.025607632574	44.23920161283053	1039.866491223885	2096.198121923062	52.42763334431449	994.2243408455964	2078.865670527204	93.2385025706612	1038.056918412687	2111.096953778406	1044.498577617862	882.017871838627	2293.221368593616	53.3842265201712	1085.475834874496	2262.750058831692	39.44880959433485	969.3354285106883	2015.185360521298	1003.325748070545	1008.080203653223	2176.952759455022	155.771767448689	976.4562620204564	2135.012079566947	174.700786268793	999.7370305797165	2196.932620720968	228.7317375107784	947.0037164562314	2156.61899142019	251.9923557328122	973.6698128691581	2262.112040438138	561.9468438237672	900.6553513728936	2213.372114209271	541.398946431663	950.8722685408359	2198.48916733325	650.4266338247562	878.675606062415	2152.889312723236	630.9889751565604	926.1270396844411	2204.854164243051	942.7691912658017	1147.381586270407	1715.073604007099	366.2284566490398	1106.581128439978	1708.630502781222	554.797267659865	1046.110246698309	1711.919703016948	540.8612413300403	1091.439177962866	1752.765427712756	531.269706795283	1054.88197993739	2139.658884861973	1024.550268014144	1202.785675243552	1659.966086235234	324.4827466721243	1071.023085346411	1654.181511603638	386.4689423563443	1165.850733014798	2021.002285045971	989.9525733077786	1095.18907355077	1819.812382451894	482.6915437537786	1137.464741359417	1828.260061035911	514.8086569272007	1094.625351667994	1898.937625893649	489.404459019881	1155.88667302351	1906.446369572109	518.7510560064476	1111.560773409532	2127.981991994159	516.1644334250096	1190.98956282781	2089.806788337447	517.1978030677666	1127.680188657202	2101.503204339377	622.7254173003807	1205.060517209708	2061.304477775112	621.2844486818452	1147.63863980067	
3941	26.26666666666667	2199.366974345367	979.4491924862258	937.2661348134286	2039.742210848403	45.20246775186997	1039.926959869817	2073.036282988673	53.40824712192098	994.3316672239256	2055.745211439434	94.13875800960552	1038.254912278917	2108.698863361547	1040.364530657225	882.8409044557259	2269.75254757889	53.7829540816934	1085.293777221484	2239.229489324836	39.71577404476837	969.453582423881	2012.199638764425	1001.022376827369	1009.941059173653	2157.01845984933	156.2078279354871	976.9178587456516	2115.559799908705	176.6559801241226	999.7992988898279	2179.8037735889	228.3970237621659	947.4820887861656	2140.093078499066	253.0767368071837	973.7905470422559	2254.047888544678	557.6532407543257	902.0448939044501	2205.954372944268	538.4565660282358	953.4320916703335	2191.463589921618	646.8584016876354	880.2793071321204	2146.466841034347	628.646804815029	928.8326998367982	2203.142282010485	939.5733784632436	1146.735979322326	1732.966907515583	363.0382528609051	1108.017371066276	1723.804114948684	551.6549125170262	1047.92548465406	1727.470167009924	537.5916170944822	1093.235269030286	1768.216078705136	528.553064351186	1056.659856367236	2138.007719898036	1021.333127885334	1203.220685825237	1678.303449393221	320.5030561542274	1072.62954447593	1672.034964651114	382.2812355184132	1167.578065680035	2018.6154461871	987.73645105213	1096.571033792142	1836.293492286193	480.2835599274923	1139.128203677822	1844.707627290806	512.4708824098967	1096.327140292473	1915.384019822069	487.2336065769148	1157.68092015779	1922.874786210376	516.6240870041509	1113.377135263829	2141.237995232189	513.875636477335	1193.350249273514	2103.193433623329	513.4689710508075	1130.124674294673	2110.657831211433	619.2531644905171	1207.18996109577	2069.989565779122	615.8881999372376	1150.133009678898	
3942	26.27333333333333	2196.060263004711	976.9499334129724	936.7467568904842	2016.487302465608	46.08323510661197	1039.899800736526	2049.855084052618	54.1718554479516	994.311881934122	2032.664600826148	94.92439983412544	1038.23398797158	2105.925013265608	1037.108811325602	883.6926588796505	2246.304252216622	54.02808464075646	1084.831096987769	2215.677116171503	39.69357420494908	969.3543901137264	2009.343355775098	999.2135233130368	1011.682647079223	2136.704542143479	156.4469198745528	977.048433283145	2095.793017175276	178.2634514517471	999.6242921478016	2162.006612918057	227.8256697757804	947.6470997002668	2122.937524498131	253.7922775570203	973.6547833533421	2244.695604651488	553.3386654976429	903.1519466624676	2197.165070125502	535.5118475987023	955.627665905183	2183.53133461993	643.5231362955553	881.8254538512966	2139.09453798623	626.6097755407017	931.4564038831447	2201.232584931173	937.2374701151833	1146.444453226738	1751.43609559537	358.7822946031332	1109.474130885463	1738.32182726655	547.3201667826758	1049.974750581988	1742.560814721383	533.1198731406786	1095.241160343923	1783.145145354451	524.9113054457583	1058.609788624454	2135.774080311996	1019.14003658136	1203.649489879829	1697.463254399433	315.159304828478	1074.244792189705	1690.513507876478	376.5742214269721	1169.376614874975	2016.162336360275	986.1506649948163	1097.788910398792	1852.663185356994	477.2393680245594	1140.824901440363	1860.792762769996	509.6754548813587	1098.126787932446	1931.674470901334	484.8894695862761	1159.463189395548	1938.905935838384	514.510526003756	1115.274138340478	2154.884304196882	512.9219427393332	1195.578085425638	2116.962508047743	511.0562294566851	1132.524615755379	2120.050859060636	616.8809787136079	1209.342425033175	2078.969353960516	611.4981089441792	1152.714937549284	
3943	26.28	2192.938490439899	974.9121089199321	936.401634125801	1993.230763271712	46.88458478491298	1039.863411966005	2026.629582399151	54.78232102479421	994.2548559498736	2009.601820183464	95.6094800634239	1038.137227685531	2102.836356192813	1034.753852670357	884.5051555506371	2222.852655487494	54.08290810196308	1084.224269426973	2192.07085175249	39.45936447746617	969.1307669138722	2006.689357970168	997.9120462814367	1013.253380085493	2115.994050898618	156.4829377390645	977.0076899728126	2075.675569458775	179.5213478210035	999.3760757851568	2143.521442446992	227.0351439857611	947.6337933333388	2105.124368755947	254.1639420255964	973.4060871677224	2234.126754176819	549.0821834008286	903.9127487036884	2187.005007597376	532.5903604779893	957.3144333958825	2174.762857413707	640.4838059998257	883.2250100313639	2130.787890037192	624.8889686394812	933.8367873411844	2199.168169458228	935.7882274248165	1146.555738148022	1770.449818002165	353.5026067561104	1110.932125640295	1752.090062337804	541.7336181613006	1052.261224189356	1757.114897735403	527.4166512909873	1097.453346780793	1797.460960830374	520.3307949419636	1060.709213250799	2132.965142024985	1017.902224135331	1204.089824391255	1717.446764680028	308.4926655188678	1075.851956957855	1709.629927964699	369.3770842262963	1171.238830046962	2013.700822540817	985.1625892723434	1098.812663924571	1868.843169272848	473.5806572668874	1142.533560229233	1876.429479700633	506.4241507565669	1099.994783644034	1947.719897837855	482.4009548962616	1161.205217499423	1954.44396766227	512.4204211080342	1117.214502725854	2168.749405372007	513.3731524257659	1197.618447860591	2130.926810790678	509.9921776219803	1134.831545393891	2129.550441918271	615.6763696758973	1211.446154060362	2088.126026266862	608.1850873958284	1155.315523254535	
